<svg version="1.1" xmlns="http://www.w3.org/2000/svg" xmlns:xlink="http://www.w3.org/1999/xlink" x="0px" y="0px"
	 viewBox="0 0 1000 1000" style="enable-background:new 0 0 1000 1000;" xml:space="preserve">
<g>
	<path class="st0" d="M542.059,968.651c-23.271,0-32.678-12.604-28.235-37.813l11.453-64.967
		c4.443-25.201,19.591-37.805,45.445-37.805h91.132c24.555,0,34.623,12.604,30.18,37.805l-11.453,64.967
		c-4.443,25.209-18.961,37.813-43.516,37.813H542.059z"/>
	<path class="st0" d="M623.575,393.949c2.056-11.631,8.558-17.452,19.561-17.452h318.002L989,218.461H680.068h-57.543h-219.87
		l1.024-10.659c4.559-25.846,19.762-38.778,45.617-38.778h110.528L584.1,31.349H400.093c-41.781,0-76.419,11.484-103.915,34.421
		c-27.496,22.945-45.064,56.073-52.697,99.38L134.586,782.721h167.722l72.951-406.411h87.58l-10.799,61.264
		c-7.523,42.66-4.816,74.015,8.131,94.05c12.955,20.035,41.393,30.048,85.351,30.048H757.85c10.979,0,15.569,5.182,13.748,15.514
		l-5.982,33.931c-2.054,11.639-8.582,17.452-19.559,17.452H425.144l-28.033,159h386.835c80.139,0,128.082-44.597,143.807-133.792
		l15.553-88.23c14.362-81.43-18.533-122.161-98.672-122.161H631.34c-11.001,0-15.569-5.158-13.748-15.506L623.575,393.949z"/>
	<path class="st0" d="M705.34,171.934c-23.271,0-32.678-12.604-28.235-37.813l11.453-64.967
		c4.443-25.201,19.591-37.805,45.445-37.805h91.132c24.555,0,34.623,12.604,30.18,37.805l-11.453,64.967
		c-4.443,25.209-18.961,37.813-43.516,37.813H705.34z"/>
	<path class="st0" d="M12.069,325.293l11.453-64.967c4.443-25.201,19.591-37.805,45.446-37.805H160.1
		c24.555,0,34.623,12.604,30.18,37.805l-11.453,64.967c-4.443,25.209-18.961,37.813-43.516,37.813H40.304
		C17.033,363.106,7.626,350.502,12.069,325.293z"/>
</g>
</svg>
